<svg height="435pt" viewBox="0 -26 435.22234 435" width="435pt" xmlns="http://www.w3.org/2000/svg"><path d="m340 81.453125v184.089844c0 18.320312-14.851562 33.167969-33.171875 33.171875h-273.65625c-18.320313-.003906-33.171875-14.851563-33.171875-33.171875v-184.089844zm0 0" fill="#e48e66"/><path d="m340 33.28125v48.171875h-340v-48.171875c0-18.320312 14.851562-33.167969 33.171875-33.171875h273.65625c18.320313.003906 33.171875 14.851563 33.171875 33.171875zm-177.613281 8.042969c.027343-6.941407-5.582031-12.589844-12.527344-12.613281-6.941406-.023438-12.589844 5.589843-12.609375 12.53125-.019531 6.941406 5.59375 12.585937 12.535156 12.605468 6.9375.015625 12.574219-5.585937 12.601563-12.523437zm-56.449219-.171875c.023438-6.941406-5.582031-12.585938-12.523438-12.605469-6.9375-.023437-12.582031 5.585937-12.601562 12.523437-.023438 6.941407 5.585938 12.582032 12.527344 12.601563 6.9375.027344 12.582031-5.582031 12.597656-12.519531zm-56.4375-.183594c.019531-6.9375-5.589844-12.578125-12.53125-12.597656-6.9375-.019532-12.578125 5.589844-12.597656 12.527344-.019532 6.941406 5.589844 12.582031 12.527344 12.601562 6.941406.019531 12.582031-5.589844 12.601562-12.53125zm0 0" fill="#f8ec7d"/><g fill="#e48e66"><path d="m149.855469 28.71875c6.941406.023438 12.546875 5.667969 12.523437 12.605469-.023437 6.941406-5.664062 12.546875-12.605468 12.523437-6.9375-.023437-12.542969-5.667968-12.519532-12.605468.027344-6.9375 5.667969-12.539063 12.601563-12.523438zm0 0"/><path d="m93.417969 28.546875c6.9375.019531 12.546875 5.660156 12.527343 12.601563-.019531 6.9375-5.664062 12.546874-12.605468 12.527343-6.9375-.023437-12.546875-5.667969-12.523438-12.609375.019532-6.9375 5.660156-12.546875 12.601563-12.519531zm0 0"/><path d="m36.976562 28.363281c6.941407.019531 12.550782 5.664063 12.53125 12.605469-.019531 6.941406-5.664062 12.550781-12.605468 12.53125s-12.550782-5.664062-12.53125-12.605469c.007812-3.335937 1.34375-6.527343 3.707031-8.878906 2.363281-2.347656 5.566406-3.664063 8.898437-3.652344zm0 0"/></g><path d="m416.480469 194.265625c9.828125 0 17.984375 7.59375 18.691406 17.394531.710937 9.804688-6.277344 18.488282-16 19.898438-.890625.132812-1.792969.199218-2.691406.199218h-142.511719c-.898438 0-1.796875-.066406-2.6875-.199218-9.726562-1.410156-16.710938-10.09375-16.003906-19.898438.707031-9.800781 8.863281-17.394531 18.691406-17.394531zm0 0" fill="#2561a1"/><path d="m419.21875 231.925781v129.980469c.003906 11.785156-9.546875 21.339844-21.328125 21.339844h-105.332031c-11.78125 0-21.332032-9.554688-21.328125-21.339844v-129.980469l.050781-.367187c.890625.132812 1.789062.199218 2.6875.199218h142.511719c.898437 0 1.800781-.066406 2.691406-.199218zm0 0" fill="#6fe3ff"/><path d="m380.609375 163.378906v30.886719h-70.78125v-30.886719c.003906-3.554687 2.886719-6.433594 6.441406-6.433594h57.910157c3.550781.003907 6.429687 2.882813 6.429687 6.433594zm0 0" fill="#6fe3ff"/><path d="m345.21875 355.308594c-3.863281 0-7-3.136719-7-7v-45.082032c0-3.867187 3.136719-7 7-7 3.867188 0 7 3.132813 7 7v45.082032c0 3.863281-3.132812 7-7 7zm0 0" fill="#2561a1"/><path d="m379.359375 355.308594c-3.867187 0-7-3.136719-7-7v-45.082032c0-3.867187 3.132813-7 7-7s7 3.132813 7 7v45.082032c0 3.863281-3.132813 7-7 7zm0 0" fill="#2561a1"/><path d="m311.089844 355.308594c-3.867188 0-7-3.136719-7-7v-45.082032c0-3.867187 3.132812-7 7-7 3.867187 0 7 3.132813 7 7v45.082032c0 3.863281-3.132813 7-7 7zm0 0" fill="#2561a1"/></svg>